<?xml version="1.0" encoding="UTF-8" standalone="no"?>
<svg
   version="1.1"
   width="512"
   height="512"
   id="svg18"
   sodipodi:docname="neural-network.svg"
   inkscape:version="1.3.2 (091e20e, 2023-11-25, custom)"
   xmlns:inkscape="http://www.inkscape.org/namespaces/inkscape"
   xmlns:sodipodi="http://sodipodi.sourceforge.net/DTD/sodipodi-0.dtd"
   xmlns="http://www.w3.org/2000/svg"
   xmlns:svg="http://www.w3.org/2000/svg">
  <defs
     id="defs18" />
  <sodipodi:namedview
     id="namedview18"
     pagecolor="#505050"
     bordercolor="#ffffff"
     borderopacity="1"
     inkscape:showpageshadow="0"
     inkscape:pageopacity="0"
     inkscape:pagecheckerboard="1"
     inkscape:deskcolor="#505050"
     inkscape:zoom="1.5840849"
     inkscape:cx="303.3297"
     inkscape:cy="208.63781"
     inkscape:window-width="2560"
     inkscape:window-height="1361"
     inkscape:window-x="2391"
     inkscape:window-y="-9"
     inkscape:window-maximized="1"
     inkscape:current-layer="svg18" />
  <path
     style="fill:#1a1a1a;fill-opacity:1;stroke-width:1.06752;stroke-linecap:square;stroke-miterlimit:8;paint-order:stroke markers fill"
     d="m 327.98934,235.4941 c 7.13735,-3.67855 43.92947,17.27622 42.65034,28.56857 -0.62114,12.93427 -33.92376,32.32482 -39.12615,27.7048 -18.08128,-15.96078 21.3998,-11.46819 14.42596,-28.13558 10.38977,-0.90401 -23.91806,-12.89469 -17.95015,-28.13779 z"
     id="path20-6"
     sodipodi:nodetypes="ccccc" />
  <rect
     style="fill:#1a1a1a;fill-opacity:1;stroke-width:1.29944;stroke-linecap:square;stroke-miterlimit:8;paint-order:stroke markers fill"
     id="rect20-5"
     width="94.498482"
     height="16.722286"
     x="275.64832"
     y="241.67427"
     transform="matrix(0.9991115,0.04214506,-0.03692046,0.99931821,0,0)" />
  <path
     style="fill:#1a1a1a;fill-opacity:1;stroke-width:1.42541;stroke-linecap:square;stroke-miterlimit:8;paint-order:stroke markers fill"
     d="m 316.53207,343.67181 c 6.94922,-10.27498 70.52598,-31.18217 76.67376,-20.80088 8.16587,11.02511 -22.71086,60.75605 -32.85268,62.3815 -35.18174,5.72677 20.5306,-31.15977 -0.34736,-37.39309 13.21053,-11.3826 -40.82444,14.1759 -43.47372,-4.18753 z"
     id="path20-6-1"
     sodipodi:nodetypes="ccccc" />
  <rect
     style="fill:#1a1a1a;fill-opacity:1;stroke-width:1.72542;stroke-linecap:square;stroke-miterlimit:8;paint-order:stroke markers fill"
     id="rect20-5-6"
     width="132.74174"
     height="20.988914"
     x="-10.954609"
     y="494.74515"
     transform="matrix(0.75412176,-0.65673463,0.54513234,0.83835001,0,0)" />
  <path
     style="fill:#1a1a1a;fill-opacity:1;stroke-width:1.42844;stroke-linecap:square;stroke-miterlimit:8;paint-order:stroke markers fill"
     d="m 340.33812,135.64339 c 11.94134,2.99547 51.59732,55.66148 43.62343,65.04054 -7.95983,11.50264 -64.89939,-0.3978 -69.59762,-9.38999 -16.38188,-31.16318 36.04438,8.57204 35.49295,-13.24982 14.94105,8.51108 -26.17904,-33.55888 -9.51876,-42.40073 z"
     id="path20-6-1-0"
     sodipodi:nodetypes="ccccc" />
  <rect
     style="fill:#1a1a1a;fill-opacity:1;stroke-width:1.47948;stroke-linecap:square;stroke-miterlimit:8;paint-order:stroke markers fill"
     id="rect20-5-6-3"
     width="114.97803"
     height="17.816319"
     x="304.60242"
     y="-62.740791"
     transform="matrix(0.8187301,0.57417856,-0.54288581,0.83980652,0,0)" />
  <path
     style="fill:#1a1a1a;fill-opacity:1;stroke-width:1.24552;stroke-linecap:square;stroke-miterlimit:8;paint-order:stroke markers fill"
     d="m 150.81122,191.14723 c 10.17329,2.67324 43.95769,49.67412 37.16446,58.04426 -6.78131,10.26534 -55.29024,-0.35501 -59.29282,-8.37992 -13.95635,-27.81101 30.70754,7.64997 30.23776,-11.82456 12.72884,7.59555 -22.3029,-29.94901 -8.1094,-37.83978 z"
     id="path20-6-1-0-5"
     sodipodi:nodetypes="ccccc" />
  <rect
     style="fill:#1a1a1a;fill-opacity:1;stroke-width:1.29167;stroke-linecap:square;stroke-miterlimit:8;paint-order:stroke markers fill"
     id="rect20-5-6-3-4"
     width="99.513138"
     height="15.690669"
     x="181.77245"
     y="84.062424"
     transform="matrix(0.80590299,0.59204761,-0.52516115,0.8510028,0,0)" />
  <path
     style="fill:#1a1a1a;fill-opacity:1;stroke-width:1.37173;stroke-linecap:square;stroke-miterlimit:8;paint-order:stroke markers fill"
     d="m 155.16476,338.01531 c 10.55763,3.12436 45.61845,58.05645 38.56856,67.83908 -7.03751,11.99753 -57.37919,-0.41494 -61.533,-9.79405 -14.48362,-32.50402 31.86773,8.94088 31.3802,-13.81992 13.20975,8.8773 -23.14554,-35.0028 -8.41576,-44.22511 z"
     id="path20-6-1-0-59"
     sodipodi:nodetypes="ccccc" />
  <rect
     style="fill:#1a1a1a;fill-opacity:1;stroke-width:1.43316;stroke-linecap:square;stroke-miterlimit:8;paint-order:stroke markers fill"
     id="rect20-5-6-3-8"
     width="108.02028"
     height="17.795391"
     x="252.19601"
     y="186.13528"
     transform="matrix(0.77048443,0.63745882,-0.48054323,0.87697104,0,0)" />
  <path
     style="fill:#1a1a1a;fill-opacity:1;stroke-width:1.26813;stroke-linecap:square;stroke-miterlimit:8;paint-order:stroke markers fill"
     d="m 133.24845,102.81116 c 8.07591,-6.482197 55.30585,5.39168 55.35012,18.61744 1.06669,14.87574 -36.303,47.6477 -43.21371,44.08875 -24.00524,-12.2601 24.15237,-19.93345 13.41914,-36.588 12.38043,-4.38635 -30.60146,-6.89335 -25.55555,-26.11819 z"
     id="path20-6-1-0-9"
     sodipodi:nodetypes="ccccc" />
  <rect
     style="fill:#1a1a1a;fill-opacity:1;stroke-width:1.31751;stroke-linecap:square;stroke-miterlimit:8;paint-order:stroke markers fill"
     id="rect20-5-6-3-2"
     width="85.821739"
     height="18.928816"
     x="82.784348"
     y="152.32031"
     transform="matrix(0.97789338,-0.20910415,0.09334175,0.99563413,0,0)" />
  <ellipse
     style="fill:#1a1a1a;fill-opacity:1;stroke-width:2.15254;stroke-linecap:square;stroke-miterlimit:8;paint-order:stroke markers fill"
     id="path19-5"
     cx="440.78497"
     cy="265.40799"
     rx="67.754387"
     ry="65.685295" />
  <ellipse
     style="fill:#e84357;fill-opacity:1;stroke-width:1.6742;stroke-linecap:square;stroke-miterlimit:8;paint-order:stroke markers fill"
     id="path19"
     cx="440.78497"
     cy="265.40799"
     rx="52.697853"
     ry="51.088562" />
  <ellipse
     style="fill:#1a1a1a;fill-opacity:1;stroke-width:2.05675;stroke-linecap:square;stroke-miterlimit:8;paint-order:stroke markers fill"
     id="path19-5-8"
     cx="257.7496"
     cy="105.16171"
     rx="63.670738"
     ry="63.814293" />
  <ellipse
     style="fill:#f5c83b;fill-opacity:1;stroke-width:1.59969;stroke-linecap:square;stroke-miterlimit:8;paint-order:stroke markers fill"
     id="path19-0"
     cx="257.7496"
     cy="105.16171"
     rx="49.521683"
     ry="49.633339" />
  <ellipse
     style="fill:#1a1a1a;fill-opacity:1;stroke-width:1.99556;stroke-linecap:square;stroke-miterlimit:8;paint-order:stroke markers fill"
     id="path19-5-4"
     cx="252.53549"
     cy="260.72964"
     rx="62.408176"
     ry="61.289177" />
  <ellipse
     style="fill:#f5c83b;fill-opacity:1;stroke-width:1.5521;stroke-linecap:square;stroke-miterlimit:8;paint-order:stroke markers fill"
     id="path19-6"
     cx="252.53549"
     cy="260.72964"
     rx="48.539692"
     ry="47.669357" />
  <ellipse
     style="fill:#1a1a1a;fill-opacity:1;stroke-width:2.04143;stroke-linecap:square;stroke-miterlimit:8;paint-order:stroke markers fill"
     id="path19-5-9"
     cx="260.23129"
     cy="402.6788"
     rx="63.670738"
     ry="62.867374" />
  <ellipse
     style="fill:#f5c83b;fill-opacity:1;stroke-width:1.58778;stroke-linecap:square;stroke-miterlimit:8;paint-order:stroke markers fill"
     id="path19-8"
     cx="260.23129"
     cy="402.6788"
     rx="49.521683"
     ry="48.896847" />
  <ellipse
     style="fill:#1a1a1a;fill-opacity:1;stroke-width:2.06184;stroke-linecap:square;stroke-miterlimit:8;paint-order:stroke markers fill"
     id="path19-5-8-6"
     cx="67.290779"
     cy="157.87405"
     rx="63.986374"
     ry="63.814293" />
  <ellipse
     style="fill:#4dd6d3;fill-opacity:1;stroke-width:1.60365;stroke-linecap:square;stroke-miterlimit:8;paint-order:stroke markers fill"
     id="path19-0-3"
     cx="67.290779"
     cy="157.87405"
     rx="49.767178"
     ry="49.633339" />
  <ellipse
     style="fill:#1a1a1a;fill-opacity:1;stroke-width:2.02593;stroke-linecap:square;stroke-miterlimit:8;paint-order:stroke markers fill"
     id="path19-5-4-1"
     cx="68.168152"
     cy="333.61829"
     rx="61.776897"
     ry="63.814293" />
  <ellipse
     style="fill:#4dd6d3;fill-opacity:1;stroke-width:1.57572;stroke-linecap:square;stroke-miterlimit:8;paint-order:stroke markers fill"
     id="path19-6-3"
     cx="68.168152"
     cy="333.61829"
     rx="48.048698"
     ry="49.633339" />
</svg>
