<?xml version="1.0" encoding="UTF-8"?>
<svg version="1.1" xmlns="http://www.w3.org/2000/svg" width="512" height="512">
<path d="M0 0 C9.31195473 9.05785644 13.678519 18.30407675 13.9375 31.375 C13.81546024 36.75117271 13.03035807 41.56774211 11.625 46.75 C12.36202148 47.02529541 13.09904297 47.30059082 13.85839844 47.58422852 C16.43110894 48.66829952 18.56647094 49.86896634 20.890625 51.40234375 C22.08884888 52.18762451 22.08884888 52.18762451 23.3112793 52.98876953 C24.15730713 53.54935059 25.00333496 54.10993164 25.875 54.6875 C27.67825556 55.87129158 29.4816431 57.05488215 31.28515625 58.23828125 C32.18508301 58.8307666 33.08500977 59.42325195 34.01220703 60.03369141 C37.76665297 62.49993649 41.53852501 64.93878814 45.3125 67.375 C46.70187925 68.27335039 48.09120232 69.17178765 49.48046875 70.0703125 C50.16286621 70.51149414 50.84526367 70.95267578 51.54833984 71.40722656 C55.07448316 73.68723929 58.59968809 75.96870206 62.125 78.25 C63.5416623 79.16667341 64.95832897 80.08334008 66.375 81 C80.54166667 90.16666667 94.70833333 99.33333333 108.875 108.5 C109.92820435 109.18147095 109.92820435 109.18147095 111.00268555 109.87670898 C112.41043537 110.78762498 113.81815057 111.69859448 115.22583008 112.60961914 C118.90363318 114.98972517 122.5821457 117.36872476 126.26171875 119.74609375 C127.02355469 120.23851562 127.78539062 120.7309375 128.5703125 121.23828125 C130.01930688 122.1748264 131.46851107 123.11104704 132.91796875 124.046875 C133.57796875 124.47355469 134.23796875 124.90023437 134.91796875 125.33984375 C135.54541992 125.74388428 136.17287109 126.1479248 136.81933594 126.56420898 C138.01195807 127.34741148 139.19281705 128.14886192 140.36035156 128.96899414 C141.75001099 129.94315132 143.18432236 130.85301422 144.625 131.75 C148.04156028 131.12063363 150.54943152 129.1590623 153.4375 127.3125 C163.56714577 120.89390203 173.6245599 119.83163654 185.37890625 121.89453125 C196.84511691 124.9163124 205.36564517 131.94896341 211.265625 141.9921875 C214.59512321 148.74685915 216.18583083 154.43079707 216.125 162 C216.11927979 162.83192871 216.11355957 163.66385742 216.10766602 164.52099609 C215.78846487 175.60598141 211.41153844 184.8535709 203.625 192.75 C193.30771856 201.48451668 181.79154438 203.94580811 168.61083984 202.98632812 C161.36057244 202.12349817 155.48558761 198.93613401 149.625 194.75 C147.46562808 193.16756692 147.46562808 193.16756692 144.625 192.75 C141.77176395 193.90359076 139.37594972 195.66314078 136.875 197.4375 C135.34801007 198.47447954 133.82065627 199.51092343 132.29296875 200.546875 C131.51614746 201.08248047 130.73932617 201.61808594 129.93896484 202.16992188 C126.40311868 204.58435492 122.79440459 206.88124529 119.1875 209.1875 C114.63629507 212.11735486 110.11323618 215.08379206 105.625 218.109375 C104.80056396 218.66439697 103.97612793 219.21941895 103.12670898 219.79125977 C101.52703214 220.87089353 99.93008283 221.95458212 98.33618164 223.04272461 C97.25904907 223.76987671 97.25904907 223.76987671 96.16015625 224.51171875 C95.524729 224.94444092 94.88930176 225.37716309 94.23461914 225.82299805 C92.625 226.75 92.625 226.75 90.625 226.75 C90.625 227.41 90.625 228.07 90.625 228.75 C91.31078125 228.98847656 91.9965625 229.22695313 92.703125 229.47265625 C96.2069392 231.0044039 99.23725344 233.03149471 102.375 235.1875 C103.71543911 236.09479499 105.05661292 237.00100527 106.3984375 237.90625 C107.09291992 238.37546875 107.78740234 238.8446875 108.50292969 239.328125 C112.67230638 242.12178007 116.8917935 244.8385393 121.11914062 247.54345703 C124.88932166 249.95964383 128.61791174 252.41891403 132.3046875 254.9609375 C133.06990723 255.47986572 133.83512695 255.99879395 134.62353516 256.53344727 C136.09423866 257.5322562 137.55542999 258.54525751 139.00537109 259.57397461 C140.85485884 260.81767314 142.56045146 261.91050691 144.625 262.75 C147.41851005 262.35988775 147.41851005 262.35988775 149.625 260.75 C150.25921875 260.35941406 150.8934375 259.96882813 151.546875 259.56640625 C152.15015625 259.15261719 152.7534375 258.73882812 153.375 258.3125 C163.53712923 251.96351723 175.31778523 250.8509298 186.95703125 253.51171875 C191.99390732 255.25498776 196.36963047 257.50781369 200.625 260.75 C201.45 261.306875 202.275 261.86375 203.125 262.4375 C206.73297836 265.77487998 209.16409964 269.51590295 211.625 273.75 C212.04394531 274.45640625 212.46289062 275.1628125 212.89453125 275.890625 C217.36486274 284.92606533 217.11843538 296.69696104 214.7421875 306.328125 C210.29038282 317.82616358 203.12734828 325.51240789 192.1796875 330.96875 C182.09863345 335.39303704 172.246395 335.57727781 161.625 332.75 C156.93152484 330.7017253 152.43360649 328.39579651 148.62890625 324.93359375 C147.96761719 324.54300781 147.30632812 324.15242188 146.625 323.75 C143.21003272 324.85073575 140.34288911 326.43394879 137.359375 328.40234375 C136.56055908 328.92586426 135.76174316 329.44938477 134.9387207 329.98876953 C134.09269287 330.54935059 133.24666504 331.10993164 132.375 331.6875 C130.57174444 332.87129158 128.7683569 334.05488215 126.96484375 335.23828125 C126.06491699 335.8307666 125.16499023 336.42325195 124.23779297 337.03369141 C120.48334703 339.49993649 116.71147499 341.93878814 112.9375 344.375 C111.54812075 345.27335039 110.15879768 346.17178765 108.76953125 347.0703125 C108.08713379 347.51149414 107.40473633 347.95267578 106.70166016 348.40722656 C103.17551684 350.68723929 99.65030111 352.96868538 96.125 355.25 C91.91059964 357.97724878 87.69603986 360.70424861 83.48046875 363.4296875 C75.8556175 368.36004244 68.23692092 373.29970195 60.625 378.25 C53.71381834 382.74458283 46.80076369 387.23620404 39.87402344 391.70678711 C36.22844739 394.06032048 32.59135117 396.42576107 28.96484375 398.80859375 C28.1968042 399.31116699 27.42876465 399.81374023 26.63745117 400.33154297 C25.17042185 401.29183215 23.70559542 402.25549847 22.2434082 403.22314453 C18.79547124 405.47484136 15.54935872 407.4038537 11.625 408.75 C11.955 409.966875 12.285 411.18375 12.625 412.4375 C15.12763927 424.02580793 14.27909989 435.99709435 8.08203125 446.3203125 C6.38140212 448.61635641 4.59760563 450.6842323 2.625 452.75 C2.02816406 453.38679688 1.43132812 454.02359375 0.81640625 454.6796875 C-6.97915547 462.23214438 -16.56696413 465.40467343 -27.28515625 465.8125 C-38.69038362 465.58180008 -48.95912222 461.3399642 -57.3125 453.5 C-66.49003312 443.60755035 -68.80787593 432.83247249 -68.375 419.75 C-70.29807983 419.35192139 -70.29807983 419.35192139 -72.26000977 418.94580078 C-77.35835403 417.80999197 -82.26298769 416.26772946 -87.21484375 414.6171875 C-88.62439583 414.15360085 -88.62439583 414.15360085 -90.06242371 413.6806488 C-92.08951106 413.01364032 -94.1159878 412.3447738 -96.14190674 411.67422485 C-101.59808315 409.86864608 -107.0589272 408.07729119 -112.51953125 406.28515625 C-113.651026 405.91349838 -114.78252075 405.54184052 -115.94830322 405.15892029 C-130.52563064 400.37761089 -145.14387391 395.72425688 -159.76147461 391.06787109 C-160.75503464 390.75098328 -161.74859467 390.43409546 -162.77226257 390.10760498 C-164.68975219 389.49633854 -166.60763714 388.88631051 -168.5259552 388.27764893 C-172.69761341 386.94929058 -176.85546931 385.59783452 -180.98730469 384.14990234 C-182.02985916 383.78749702 -182.02985916 383.78749702 -183.09347534 383.41777039 C-184.90139173 382.78419085 -186.70459851 382.13721479 -188.50732422 381.48901367 C-191.37533634 380.74991332 -192.68260139 380.6056534 -195.375 381.75 C-197.01529963 383.35880345 -197.01529963 383.35880345 -198.5 385.375 C-205.7657461 394.00404175 -214.43075679 398.99430504 -225.66015625 400.0625 C-237.13301826 400.46906875 -247.54073837 398.28596875 -256.37890625 390.6640625 C-265.12092718 382.2813027 -270.36918672 373.90622629 -270.66772461 361.55639648 C-270.77562689 348.63076868 -268.36001745 339.4553353 -259.375 329.75 C-251.16831894 321.43191603 -241.59650505 317.81690201 -230 317.4375 C-218.99469717 317.69843466 -208.94797154 321.36732505 -200.97265625 329.0703125 C-195.375 335.18936731 -195.375 335.18936731 -195.375 337.75 C-177.84424253 332.42650013 -160.40931995 326.83194271 -143 321.125 C-126.7102228 315.78730862 -110.41118463 310.48074824 -94.08441162 305.25714111 C-91.99329712 304.58789849 -89.90251478 303.91761708 -87.81207275 303.24627686 C-84.91862898 302.31744752 -82.02398334 301.39247385 -79.12890625 300.46875 C-78.2667601 300.1914505 -77.40461395 299.914151 -76.51634216 299.62844849 C-70.60442394 297.75 -70.60442394 297.75 -68.375 297.75 C-68.375 294.78 -68.375 291.81 -68.375 288.75 C-69.10085297 288.57852951 -69.82670593 288.40705902 -70.57455444 288.23039246 C-77.99983056 286.43152219 -85.23079017 284.27848068 -92.4765625 281.86328125 C-94.18061752 281.30145897 -94.18061752 281.30145897 -95.9190979 280.72828674 C-98.35277173 279.92565138 -100.78585288 279.12121706 -103.21838379 278.31512451 C-109.01179397 276.39611232 -114.80944089 274.49002227 -120.60717773 272.58412933 C-121.92903961 272.14955501 -123.25085747 271.71484682 -124.57263184 271.28000641 C-137.48488174 267.03219351 -150.4115862 262.8301621 -163.35418701 258.67562866 C-165.52434698 257.9785444 -167.69399028 257.27984951 -169.86309814 256.57949829 C-172.87094111 255.60868537 -175.88049005 254.64336657 -178.890625 253.6796875 C-179.76925201 253.39517227 -180.64787903 253.11065704 -181.5531311 252.81752014 C-187.85489139 250.78504251 -187.85489139 250.78504251 -194.375 249.75 C-196.7134597 251.61021374 -196.7134597 251.61021374 -198.625 254.3125 C-205.17922056 262.15121604 -213.24449334 266.99072243 -223.375 268.75 C-237.00537176 269.96009466 -247.56553506 266.55334916 -258.34765625 258.2265625 C-265.45839579 251.81908292 -270.03763612 242.33033039 -270.61328125 232.80859375 C-270.95518303 218.5996487 -268.60900554 208.41832671 -258.59765625 197.87890625 C-249.46591867 189.19535211 -239.02760594 186.40044926 -226.71875 186.5390625 C-215.2596165 187.26195176 -205.58294177 192.94602243 -197.75 201.13671875 C-196.375 202.75 -196.375 202.75 -194.375 205.75 C-186.21254763 204.14061239 -178.40345965 201.60438488 -170.51171875 199.015625 C-169.05123606 198.5400335 -167.59062091 198.06484859 -166.12988281 197.59004211 C-163.03794311 196.58427378 -159.9468035 195.57609898 -156.85629272 194.56594849 C-152.04542412 192.99369207 -147.23257764 191.42756074 -142.41918945 189.86303711 C-141.22378808 189.4744806 -141.22378808 189.4744806 -140.00423717 189.07807446 C-138.39776499 188.55593377 -136.79128378 188.03382085 -135.18479347 187.51173592 C-132.7834582 186.73118652 -130.38227653 185.95016616 -127.98112488 185.16905212 C-115.62008392 181.14879516 -103.2510806 177.15426717 -90.86660767 173.20666504 C-89.00342113 172.61253797 -87.14060458 172.01724934 -85.27816772 171.42077637 C-82.752779 170.61220628 -80.22623355 169.80737747 -77.69921875 169.00390625 C-76.97250977 168.77069168 -76.24580078 168.53747711 -75.49707031 168.29719543 C-70.60484083 166.75 -70.60484083 166.75 -68.375 166.75 C-68.375 163.78 -68.375 160.81 -68.375 157.75 C-69.01964706 157.58106735 -69.66429413 157.4121347 -70.32847595 157.23808289 C-77.71604898 155.26698615 -84.98423751 153.01024352 -92.25390625 150.64453125 C-94.13450416 150.0361359 -96.01510249 149.42774187 -97.89571857 148.81940269 C-99.88197181 148.17639269 -101.8678301 147.53217666 -103.85357666 146.88760376 C-107.97815949 145.54887532 -112.10392187 144.21381084 -116.22998047 142.87963867 C-116.92193134 142.65588971 -117.61388222 142.43214075 -118.3268013 142.20161152 C-119.7307819 141.74763549 -121.13476725 141.29367415 -122.53875732 140.8397274 C-124.65749989 140.15458264 -126.77614691 139.46914309 -128.89477539 138.78364563 C-141.50165388 134.70522616 -154.1154879 130.64870814 -166.73458862 126.60824585 C-168.90397397 125.91350162 -171.07318513 125.21821325 -173.24221802 124.52236938 C-176.23658954 123.5618043 -179.23148701 122.60289872 -182.2265625 121.64453125 C-183.10280777 121.36319336 -183.97905304 121.08185547 -184.8818512 120.79199219 C-186.08623085 120.40732788 -186.08623085 120.40732788 -187.31494141 120.01489258 C-188.35347763 119.68235222 -188.35347763 119.68235222 -189.41299438 119.34309387 C-191.38748534 118.74622581 -193.36997625 118.23332422 -195.375 117.75 C-195.560625 118.430625 -195.74625 119.11125 -195.9375 119.8125 C-200.1492914 128.41920417 -208.90301022 133.47281841 -217.6953125 136.56640625 C-229.35936166 139.55558014 -241.060224 137.90606936 -251.5625 132.125 C-260.94283526 126.07989506 -267.98159958 116.74994585 -270.375 105.75 C-271.16961788 92.60623863 -270.75100943 81.2374186 -262.0703125 70.59375 C-254.01795503 61.83634741 -245.19576888 56.46170018 -233.1796875 55.4921875 C-221.71707444 55.11429916 -212.29905325 57.33293604 -203.421875 64.80078125 C-200.15591944 67.91091832 -197.20734764 71.24371755 -194.375 74.75 C-187.47474719 73.34044717 -180.90034449 71.40549373 -174.22265625 69.1796875 C-173.14923477 68.82605637 -172.07581329 68.47242523 -170.96986389 68.108078 C-168.65975611 67.34672821 -166.3502594 66.58352225 -164.0413208 65.81863403 C-157.89389804 63.78252474 -151.74180931 61.76061536 -145.58984375 59.73828125 C-144.96174301 59.53164541 -144.33364227 59.32500957 -143.68650818 59.11211205 C-127.87332848 53.91073166 -112.01695302 48.84556617 -96.15649414 43.79052734 C-95.15847275 43.47231522 -94.16045135 43.15410309 -93.13218689 42.82624817 C-91.29277877 42.24001037 -89.4531677 41.65440873 -87.61329651 41.06962585 C-86.78845261 40.80696426 -85.9636087 40.54430267 -85.11376953 40.27368164 C-84.32746155 40.02353302 -83.54115356 39.7733844 -82.73101807 39.51565552 C-79.56800825 38.48774493 -76.4270372 37.39758514 -73.28927612 36.29515076 C-71.375 35.75 -71.375 35.75 -68.375 35.75 C-68.42140625 35.10675781 -68.4678125 34.46351562 -68.515625 33.80078125 C-68.9221536 23.62304742 -66.83417479 13.52110062 -60.12109375 5.5859375 C-59.54488281 4.98007812 -58.96867188 4.37421875 -58.375 3.75 C-57.72660156 3.06164063 -57.07820312 2.37328125 -56.41015625 1.6640625 C-40.74766212 -13.57359001 -16.56327357 -14.16172269 0 0 Z M-68.3190918 52.93310547 C-69.14451477 53.19601379 -69.96993774 53.45892212 -70.82037354 53.72979736 C-71.72914246 54.02263611 -72.63791138 54.31547485 -73.57421875 54.6171875 C-75.01121124 55.07674835 -75.01121124 55.07674835 -76.47723389 55.54559326 C-79.67333017 56.56894811 -82.86794611 57.59684129 -86.0625 58.625 C-88.29628419 59.34170004 -90.53008988 60.05833306 -92.76391602 60.77490234 C-112.0943953 66.98414098 -131.39279619 73.29135388 -150.68041992 79.63232422 C-152.86894616 80.35133347 -155.05750331 81.07024867 -157.24609375 81.7890625 C-158.28489182 82.13053314 -159.32368988 82.47200378 -160.39396667 82.82382202 C-167.85285936 85.2690576 -175.33036779 87.65046937 -182.83384705 89.95547485 C-186.38610421 90.83290046 -186.38610421 90.83290046 -189.375 92.75 C-189.44648199 94.10243917 -189.45899454 95.45834367 -189.4375 96.8125 C-189.416875 98.111875 -189.39625 99.41125 -189.375 100.75 C-167.20935903 108.18976879 -145.00696296 115.51716146 -122.79229736 122.80899429 C-120.71666729 123.49042437 -118.64115506 124.1722122 -116.56567383 124.85409546 C-102.73492784 129.39742562 -88.89914108 133.92533161 -75.04296875 138.390625 C-73.9878157 138.73277039 -72.93266266 139.07491577 -71.84553528 139.4274292 C-70.88612534 139.73529358 -69.92671539 140.04315796 -68.93823242 140.36035156 C-68.10063889 140.63026917 -67.26304535 140.90018677 -66.40007019 141.17828369 C-64.40491031 141.84056635 -64.40491031 141.84056635 -62.375 141.75 C-61.0334751 140.15910873 -61.0334751 140.15910873 -59.6875 138.125 C-54.37858001 130.86691132 -48.70935251 126.98950097 -40.375 123.75 C-37.9 122.76 -37.9 122.76 -35.375 121.75 C-35.375 105.25 -35.375 88.75 -35.375 71.75 C-39.005 70.1 -42.635 68.45 -46.375 66.75 C-52.78942173 63.03638742 -56.7276643 59.57809795 -60.96484375 53.5078125 C-61.43019531 52.92773438 -61.89554687 52.34765625 -62.375 51.75 C-64.61876129 51.75 -66.18132759 52.24838157 -68.3190918 52.93310547 Z M-6.31640625 65.828125 C-9.375 67.75 -9.375 67.75 -19.375 71.75 C-19.375 88.25 -19.375 104.75 -19.375 121.75 C-15.415 123.4 -11.455 125.05 -7.375 126.75 C3.17808694 133.6848857 8.63239989 141.77219966 12.625 153.75 C52.885 153.75 93.145 153.75 134.625 153.75 C136.8486068 150.0481424 136.8486068 150.0481424 136.625 146.75 C134.40467573 145.14367602 132.23222974 143.75533481 129.875 142.375 C128.3985723 141.48239667 126.92336732 140.58776858 125.44921875 139.69140625 C124.66337402 139.21590332 123.8775293 138.74040039 123.06787109 138.25048828 C118.88951438 135.68401013 114.79097077 132.99650121 110.6875 130.3125 C108.98444293 129.20171876 107.28131815 128.09104133 105.578125 126.98046875 C104.74732422 126.43825684 103.91652344 125.89604492 103.06054688 125.33740234 C99.35850252 122.92454224 95.64850141 120.52405301 91.9375 118.125 C91.24793213 117.67906494 90.55836426 117.23312988 89.84790039 116.77368164 C88.46586461 115.87997707 87.08378475 114.98634065 85.70166016 114.09277344 C82.17551684 111.81276071 78.65031191 109.53129794 75.125 107.25 C73.7083377 106.33332659 72.29167103 105.41665992 70.875 104.5 C62.375 99 53.875 93.5 45.375 88 C44.67334717 87.5460083 43.97169434 87.0920166 43.2487793 86.62426758 C41.83611173 85.71015035 40.42351375 84.79592557 39.01098633 83.8815918 C35.40870468 81.55001926 31.80512836 79.22048966 28.19921875 76.89453125 C27.47105957 76.42442627 26.74290039 75.95432129 25.99267578 75.4699707 C24.55529691 74.54203238 23.11748114 73.61477041 21.67919922 72.68823242 C18.42662404 70.58737252 15.19136945 68.46846605 11.99609375 66.28125 C10.92488281 65.5490625 9.85367187 64.816875 8.75 64.0625 C7.82445312 63.41925781 6.89890625 62.77601562 5.9453125 62.11328125 C0.68160606 59.02063218 -2.11876868 62.60235426 -6.31640625 65.828125 Z M12.625 170.75 C12.295 173.06 11.965 175.37 11.625 177.75 C12.17099854 178.09554932 12.71699707 178.44109863 13.27954102 178.79711914 C25.96315311 186.83064463 38.58318306 194.95454938 51.1484375 203.171875 C58.62231179 208.05955152 66.12264606 212.90619833 73.625 217.75 C74.53765625 217.16605469 74.53765625 217.16605469 75.46875 216.5703125 C79.67014265 213.88883543 83.87254568 211.21108258 88.109375 208.5859375 C99.20736292 201.7062425 110.14761905 194.59438329 121.06152344 187.42675781 C123.27589779 185.9783461 125.49799448 184.54360699 127.7265625 183.1171875 C129.34691406 182.06917969 129.34691406 182.06917969 131 181 C132.34191406 180.14148438 132.34191406 180.14148438 133.7109375 179.265625 C135.9095177 177.80884724 135.9095177 177.80884724 136.625 174.75 C135.635 172.77 135.635 172.77 134.625 170.75 C94.365 170.75 54.105 170.75 12.625 170.75 Z M-70.6015625 184.69921875 C-71.24423034 184.90790116 -71.88689817 185.11658358 -72.54904079 185.3315897 C-74.70025612 186.03083985 -76.85010026 186.7342164 -79 187.4375 C-80.52139633 187.93273553 -82.04288773 188.42767909 -83.56446838 188.92234802 C-86.81206749 189.97868556 -90.05910541 191.03672345 -93.30569458 192.09616089 C-100.90570012 194.57618127 -108.50807452 197.0489199 -116.11062813 199.52111626 C-117.80891928 200.07338322 -119.50717531 200.62575822 -121.20539665 201.17823982 C-132.25385358 204.77220471 -143.30939316 208.34250557 -154.37890625 211.87109375 C-155.56116791 212.24803375 -156.74342957 212.62497375 -157.96151733 213.01333618 C-163.39274716 214.74353352 -168.82550223 216.46880936 -174.25976562 218.18945312 C-176.15366151 218.79161737 -178.04754273 219.39382774 -179.94140625 219.99609375 C-180.79505264 220.2647374 -181.64869904 220.53338104 -182.5282135 220.81016541 C-186.2422969 221.74958052 -186.2422969 221.74958052 -189.375 223.75 C-189.44648199 225.10243917 -189.45899454 226.45834367 -189.4375 227.8125 C-189.416875 229.111875 -189.39625 230.41125 -189.375 231.75 C-182.22929118 234.51298522 -174.97390569 236.90681355 -167.6953125 239.29296875 C-166.33967265 239.7386414 -164.98406742 240.18441934 -163.62849426 240.6302948 C-160.00268798 241.82222274 -156.37607819 243.01168617 -152.74918747 244.20030975 C-150.49787944 244.93819503 -148.24674059 245.67659448 -145.99563599 246.4151001 C-125.78675159 253.04363018 -105.56427704 259.62854119 -85.3125 266.125 C-84.24316223 266.4689682 -83.17382446 266.8129364 -82.07208252 267.16732788 C-79.09986126 268.12260424 -76.12637733 269.07382074 -73.15234375 270.0234375 C-72.28164749 270.303582 -71.41095123 270.5837265 -70.51387024 270.87236023 C-66.52413203 272.24473643 -66.52413203 272.24473643 -62.375 272.75 C-61.10487371 271.18911436 -61.10487371 271.18911436 -59.8125 269.1875 C-53.26967868 260.26403767 -45.81048946 257.09812061 -35.375 252.75 C-35.375 236.25 -35.375 219.75 -35.375 202.75 C-39.335 201.1 -43.295 199.45 -47.375 197.75 C-53.20460555 193.78885777 -57.28852865 190.10205243 -61.18359375 184.25390625 C-61.57675781 183.75761719 -61.96992188 183.26132813 -62.375 182.75 C-65.33112265 182.75 -67.79206753 183.78296024 -70.6015625 184.69921875 Z M-6.31640625 196.828125 C-9.375 198.75 -9.375 198.75 -19.375 202.75 C-19.375 219.25 -19.375 235.75 -19.375 252.75 C-15.415 254.4 -11.455 256.05 -7.375 257.75 C-2.875 261.125 -2.875 261.125 -1.09375 262.7109375 C0.56719971 263.96786671 0.56719971 263.96786671 2.51293945 263.44726562 C4.66509012 262.73676484 6.25050966 261.88020737 8.13671875 260.6328125 C8.80316406 260.19646484 9.46960938 259.76011719 10.15625 259.31054688 C10.8678125 258.83681641 11.579375 258.36308594 12.3125 257.875 C13.84755909 256.86703951 15.3827181 255.85923119 16.91796875 254.8515625 C17.70091309 254.3349707 18.48385742 253.81837891 19.29052734 253.28613281 C22.88795285 250.91895008 26.50669975 248.58509531 30.125 246.25 C31.52227615 245.3465718 32.91941066 244.44292449 34.31640625 243.5390625 C35.01523926 243.08692383 35.71407227 242.63478516 36.43408203 242.16894531 C38.75798413 240.663873 41.08028003 239.15634438 43.40234375 237.6484375 C44.57216797 236.88950195 44.57216797 236.88950195 45.765625 236.11523438 C47.26747585 235.14081924 48.76880035 234.16559225 50.26953125 233.18945312 C55.4000756 229.8624622 55.4000756 229.8624622 57.625 228.75 C57.625 228.09 57.625 227.43 57.625 226.75 C55.40460339 225.22115149 53.18574019 223.81895027 50.875 222.4375 C49.3974014 221.53424481 47.92088795 220.62921272 46.4453125 219.72265625 C45.65930664 219.24070801 44.87330078 218.75875977 44.06347656 218.26220703 C39.92026396 215.69281788 35.83483488 213.03589176 31.75 210.375 C30.91831299 209.83488281 30.08662598 209.29476562 29.22973633 208.73828125 C24.94596129 205.94773141 20.68695161 203.12549956 16.45703125 200.25390625 C15.63380371 199.69687012 14.81057617 199.13983398 13.96240234 198.56591797 C12.39467916 197.50216277 10.83099815 196.4324191 9.27197266 195.35595703 C8.22275635 194.64415283 8.22275635 194.64415283 7.15234375 193.91796875 C6.54124756 193.49797607 5.93015137 193.0779834 5.30053711 192.64526367 C0.49780134 190.0790926 -2.64693425 194.00823519 -6.31640625 196.828125 Z M66.125 242.5625 C64.56253875 243.57948661 63.00003766 244.59641204 61.4375 245.61328125 C60.63570313 246.13615723 59.83390625 246.6590332 59.0078125 247.19775391 C55.3858456 249.55722783 51.75535797 251.9034663 48.125 254.25 C46.71608875 255.16137009 45.30723487 256.07282888 43.8984375 256.984375 C42.8480127 257.6640332 42.8480127 257.6640332 41.77636719 258.35742188 C39.57179892 259.78443702 37.36786623 261.21242947 35.1640625 262.640625 C27.33865908 267.71059258 19.50417943 272.76382382 11.625 277.75 C11.955 280.06 12.285 282.37 12.625 284.75 C52.885 284.75 93.145 284.75 134.625 284.75 C135.615 281.78 135.615 281.78 136.625 278.75 C130.00689797 273.73033787 123.22805621 269.17365379 116.16625977 264.81494141 C110.58418893 261.36491603 105.06262108 257.82916139 99.5625 254.25 C98.72364258 253.70424316 97.88478516 253.15848633 97.02050781 252.59619141 C90.9899364 248.66214006 84.99015185 244.68316256 79.02905273 240.64453125 C73.04696407 236.61534652 71.86410017 238.80672841 66.125 242.5625 Z M12.625 301.75 C12.29741699 302.56549316 11.96983398 303.38098633 11.63232422 304.22119141 C11.1942041 305.29546387 10.75608398 306.36973633 10.3046875 307.4765625 C9.87397949 308.53955566 9.44327148 309.60254883 8.99951172 310.69775391 C4.23182403 321.28489981 -3.76163416 327.62466345 -14.375 331.75 C-16.025 332.41 -17.675 333.07 -19.375 333.75 C-19.375 350.25 -19.375 366.75 -19.375 383.75 C-15.415 385.4 -11.455 387.05 -7.375 388.75 C-2.875 392.125 -2.875 392.125 -1.09375 393.7109375 C0.55808738 394.95861919 0.55808738 394.95861919 2.45776367 394.47949219 C4.92604896 393.64866686 6.82935021 392.52771742 9.01953125 391.1171875 C9.88102783 390.56587158 10.74252441 390.01455566 11.63012695 389.4465332 C12.55656006 388.84542725 13.48299316 388.24432129 14.4375 387.625 C15.40582764 387.00262451 16.37415527 386.38024902 17.37182617 385.73901367 C20.46097195 383.74992093 23.54395495 381.75161485 26.625 379.75 C27.61757813 379.10530762 28.61015625 378.46061523 29.6328125 377.79638672 C34.49801579 374.63288135 39.35811291 371.46165131 44.21484375 368.28515625 C50.99305296 363.8525626 57.79365907 359.45492153 64.59667969 355.06054688 C68.10732796 352.79223201 71.61604113 350.52092702 75.125 348.25 C76.54165794 347.33331985 77.95832459 346.41665316 79.375 345.5 C80.426875 344.819375 80.426875 344.819375 81.5 344.125 C89.29166667 339.08333333 97.08333333 334.04166667 104.875 329 C105.5774585 328.54544434 106.27991699 328.09088867 107.00366211 327.62255859 C108.40803427 326.71389473 109.81249268 325.80536417 111.21704102 324.89697266 C114.94756367 322.48399824 118.67618156 320.06814096 122.40234375 317.6484375 C123.57216797 316.88950195 123.57216797 316.88950195 124.765625 316.11523438 C126.26747585 315.14081924 127.76880035 314.16559225 129.26953125 313.18945312 C134.4000756 309.8624622 134.4000756 309.8624622 136.625 308.75 C136.34959296 304.93186553 136.34959296 304.93186553 134.625 301.75 C133.04345152 301.65405775 131.45760875 301.6281204 129.87315369 301.62974548 C128.84525223 301.62837082 127.81735077 301.62699615 126.75830078 301.62557983 C125.62110596 301.62917511 124.48391113 301.63277039 123.31225586 301.63647461 C122.12217422 301.63632858 120.93209259 301.63618256 119.70594788 301.6360321 C116.43336726 301.63661106 113.16082893 301.64164019 109.88825679 301.64860606 C106.47161335 301.65484033 103.05496917 301.65544346 99.63832092 301.65663147 C93.16430733 301.65974457 86.69031054 301.66795767 80.21630436 301.67798096 C72.8476208 301.68914275 65.47893645 301.69465271 58.11024654 301.69967639 C42.94848831 301.71014031 27.78674583 301.72773934 12.625 301.75 Z M-68.85742188 315.1484375 C-70.26958733 315.61241692 -70.26958733 315.61241692 -71.71028137 316.08576965 C-72.74432602 316.42871567 -73.77837067 316.77166168 -74.84375 317.125 C-75.92657761 317.48127975 -77.00940521 317.83755951 -78.12504578 318.20463562 C-80.47628228 318.97836554 -82.82711065 319.75333656 -85.17758179 320.52938843 C-91.43523125 322.5951973 -97.69583603 324.65199819 -103.95703125 326.70703125 C-104.91687644 327.02219665 -104.91687644 327.02219665 -105.89611244 327.34372902 C-121.44113837 332.44599327 -137.0274526 337.41828337 -152.625 342.35742188 C-164.95515216 346.27226733 -177.18982613 350.40463461 -189.375 354.75 C-189.375 357.39 -189.375 360.03 -189.375 362.75 C-181.20727336 366.19936245 -172.847123 368.96770152 -164.4140625 371.6796875 C-162.95478937 372.15174397 -161.4956088 372.62408667 -160.03651428 373.09669495 C-156.15786434 374.35196647 -152.27780574 375.60282565 -148.39736557 376.85255051 C-145.19221385 377.88527486 -141.9878107 378.92031129 -138.78338909 379.95529842 C-129.35701913 382.99967508 -119.92801583 386.03582785 -110.49758148 389.06758881 C-108.47906683 389.71654245 -106.46062429 390.36571989 -104.44219971 391.01495361 C-97.91908659 393.11256301 -91.39475097 395.20626149 -84.86761475 397.2913208 C-83.00411837 397.88667138 -81.14087565 398.48281654 -79.27789307 399.07977295 C-76.75262551 399.888256 -74.22616943 400.69288949 -71.69921875 401.49609375 C-70.9725148 401.72929825 -70.24581085 401.96250275 -69.49708557 402.20277405 C-66.00440321 403.35803389 -66.00440321 403.35803389 -62.375 403.75 C-61.10487371 402.18911436 -61.10487371 402.18911436 -59.8125 400.1875 C-53.26967868 391.26403767 -45.81048946 388.09812061 -35.375 383.75 C-35.375 367.25 -35.375 350.75 -35.375 333.75 C-39.335 332.1 -43.295 330.45 -47.375 328.75 C-53.31482135 324.84668882 -59.12667964 320.24664071 -62.375 313.75 C-64.79712388 313.75 -66.55246261 314.38693436 -68.85742188 315.1484375 Z " fill="#0000CB" transform="translate(283.375,28.25)"/>
<path d="M0 0 C6.43862585 3.50295283 10.07636063 8.20603359 12.7734375 14.96484375 C14.78211891 22.81472141 13.49222285 29.2111911 9.515625 36.1640625 C5.39892649 42.24912779 0.59610125 44.6906225 -6.2265625 46.96484375 C-14.25199146 47.89958589 -20.62812426 46.75739363 -27.2265625 41.96484375 C-32.41614848 36.73146379 -35.88694287 30.47424663 -36.6015625 23.08984375 C-36.2730901 16.0140007 -33.97255435 9.71076248 -29.078125 4.5390625 C-20.63496537 -2.63940444 -10.24057478 -4.53511169 0 0 Z " fill="#C6D1FD" transform="translate(267.2265625,168.03515625)"/>
<path d="M0 0 C5.85303772 3.8269862 9.62003882 9.3827714 11.62109375 16.078125 C13.02302974 23.18897558 11.5328448 29.82038813 7.81640625 35.953125 C3.32667495 41.80376635 -2.68937734 45.30051901 -9.9609375 46.48046875 C-18.15595815 46.87020624 -24.58866833 44.75849189 -30.84765625 39.42578125 C-35.69929472 34.31189205 -37.56110603 28.44845262 -38.4375 21.5625 C-37.59187798 14.67672073 -34.95627369 7.95627369 -30 3 C-20.61014417 -4.14445552 -10.61770659 -4.95760591 0 0 Z " fill="#C6D1FD" transform="translate(269,431)"/>
<path d="M0 0 C6.88429532 3.74542058 11.16113166 9.52586267 13.390625 17.046875 C14.91990867 24.70889831 12.66332423 31.29119935 8.640625 37.796875 C4.90150949 42.68743999 -0.20170954 45.76881543 -6.2265625 46.96484375 C-14.26667628 47.86389801 -20.60715713 46.77262239 -27.2265625 41.96484375 C-32.40853914 36.73913735 -35.82065747 30.50201618 -36.6640625 23.15234375 C-36.33879631 15.53815788 -32.7357246 8.11471267 -27.2265625 2.96484375 C-18.7730338 -2.80867132 -9.50531988 -4.2094988 0 0 Z " fill="#C6D1FD" transform="translate(267.2265625,299.03515625)"/>
<path d="M0 0 C5.80400151 3.72332172 8.85255083 8.53929824 11 15 C12.243559 23.44681582 10.55034059 30.17448911 5.875 37.1875 C0.96467928 42.65004524 -5.93590087 45.59359009 -13.125 46.3125 C-20.88606445 45.68660771 -27.57667825 42.55244845 -33 37 C-37.85773134 30.06484658 -38.94853867 23.32728719 -38 15 C-35.7257186 7.57138927 -31.73298315 2.77795166 -25 -1 C-16.04550069 -5.4943384 -8.79829645 -4.41371494 0 0 Z " fill="#6380FC" transform="translate(67,235)"/>
<path d="M0 0 C6.91086977 3.11934395 11.01209337 7.78202002 14.20703125 14.578125 C16.32852803 20.92341628 15.79431282 28.21335552 13.10546875 34.31640625 C9.14367987 41.37287551 3.82520041 45.49514985 -3.94140625 47.7421875 C-11.93025355 49.4215719 -17.97850405 47.34384405 -24.69140625 43.02734375 C-29.63242828 39.26868215 -32.72175925 34.24495369 -33.9296875 28.16015625 C-34.8272671 20.13323013 -33.75045261 13.76125188 -28.9296875 7.16015625 C-26.45386536 4.79219171 -23.87898326 2.89572592 -20.9296875 1.16015625 C-20.32511719 0.78761719 -19.72054687 0.41507812 -19.09765625 0.03125 C-13.31382086 -2.29270548 -5.88756176 -1.6877677 0 0 Z " fill="#6380FC" transform="translate(62.9296875,363.83984375)"/>
<path d="M0 0 C6.78408752 3.88751083 11.07577946 8.91232892 13.2109375 16.48828125 C14.57427905 24.55257514 12.85728263 31.01634712 8.36328125 37.7734375 C3.62801753 43.6685748 -1.97888663 46.29274381 -9.5 47.19140625 C-16.78625908 47.58354867 -22.51447673 45.27792813 -28.125 40.6875 C-31.95028275 36.01215441 -35.89735504 31.1468845 -36.375 24.9375 C-36.5296875 23.32875 -36.5296875 23.32875 -36.6875 21.6875 C-36.07707071 14.36234849 -32.67451611 8.00660236 -27.375 2.9375 C-18.84481479 -3.00063998 -9.58573641 -4.33229228 0 0 Z " fill="#C6D1FD" transform="translate(267.375,37.0625)"/>
<path d="M0 0 C5.75162532 4.40417297 9.34643255 10.42967313 10.49609375 17.58984375 C10.82594324 25.44026164 8.33603331 30.94905661 4.42578125 37.56640625 C-1.23961304 42.9336219 -7.17149129 45.14806251 -14.94921875 45.50390625 C-21.89048073 45.21720195 -26.77208593 43.48057545 -31.94921875 38.81640625 C-37.6035466 32.12140456 -39.3933591 26.44541961 -39.2890625 17.765625 C-38.53774655 11.24558428 -35.41015975 5.82389947 -30.63671875 1.37890625 C-21.26108112 -5.7847303 -10.05730766 -6.10694233 0 0 Z " fill="#6480FC" transform="translate(67.94921875,104.18359375)"/>
<path d="M0 0 C6.126912 3.66997917 10.36493911 9.58112139 12.328125 16.39453125 C13.43398293 24.44617098 12.02524935 30.73932855 7.328125 37.39453125 C2.55101403 42.69153315 -1.9569699 45.93040778 -9.171875 46.640625 C-17.03243587 47.00090071 -22.99152422 45.68146522 -28.9375 40.37109375 C-35.07243616 33.90513586 -37.26343226 27.90800731 -37.046875 19.015625 C-36.02019696 11.83957326 -32.20396166 5.92305618 -26.48046875 1.578125 C-17.88907307 -4.04432185 -9.24611759 -4.11423157 0 0 Z " fill="#6481FC" transform="translate(470.671875,299.60546875)"/>
<path d="M0 0 C5.83586564 3.99885611 10.04675176 9.610563 12.03515625 16.39453125 C13.0170242 23.64808073 11.7988347 30.09354148 8.03515625 36.39453125 C3.03388308 42.28098551 -2.73432072 45.62887903 -10.33984375 46.7421875 C-17.90862769 47.20341027 -24.10432806 44.74302065 -29.8203125 39.78515625 C-34.77085072 34.45568794 -37.05506377 28.69389794 -37.40234375 21.45703125 C-37.08749365 13.5494498 -34.30426675 8.30068503 -28.52734375 2.95703125 C-20.38159411 -4.0553967 -9.59187855 -4.92650024 0 0 Z " fill="#6481FC" transform="translate(470.96484375,168.60546875)"/>
</svg>
