<?xml version="1.0" encoding="UTF-8" standalone="no"?>
<svg
   version="1.1"
   width="512"
   height="512"
   id="svg18"
   sodipodi:docname="neural-net.svg"
   inkscape:version="1.3.2 (091e20e, 2023-11-25, custom)"
   xmlns:inkscape="http://www.inkscape.org/namespaces/inkscape"
   xmlns:sodipodi="http://sodipodi.sourceforge.net/DTD/sodipodi-0.dtd"
   xmlns="http://www.w3.org/2000/svg"
   xmlns:svg="http://www.w3.org/2000/svg">
  <defs
     id="defs18" />
  <sodipodi:namedview
     id="namedview18"
     pagecolor="#505050"
     bordercolor="#ffffff"
     borderopacity="1"
     inkscape:showpageshadow="0"
     inkscape:pageopacity="0"
     inkscape:pagecheckerboard="1"
     inkscape:deskcolor="#505050"
     inkscape:zoom="1.5840849"
     inkscape:cx="303.3297"
     inkscape:cy="208.6378"
     inkscape:window-width="2560"
     inkscape:window-height="1361"
     inkscape:window-x="2391"
     inkscape:window-y="-9"
     inkscape:window-maximized="1"
     inkscape:current-layer="svg18" />
  <path
     style="fill:#1a1a1a;fill-opacity:1;stroke-width:0.99047;stroke-linecap:square;stroke-miterlimit:8;paint-order:stroke markers fill"
     d="m 313.96161,234.54787 c 8.16392,-2.76855 50.24796,13.00244 48.78484,21.50129 -0.71047,9.73461 -38.80311,24.32833 -44.75376,20.85122 -20.68196,-12.01244 24.47779,-8.6312 16.50088,-21.17542 11.88416,-0.68039 -27.35826,-9.70482 -20.53196,-21.17709 z"
     id="path20-6"
     sodipodi:nodetypes="ccccc" />
  <rect
     style="fill:#1a1a1a;fill-opacity:1;stroke-width:1.02552;stroke-linecap:square;stroke-miterlimit:8;paint-order:stroke markers fill"
     id="rect20-5"
     width="79.275269"
     height="12.4153"
     x="285.48029"
     y="237.78557"
     transform="matrix(0.99930442,0.03729178,-0.04172558,0.99912911,0,0)" />
  <path
     style="fill:#1a1a1a;fill-opacity:1;stroke-width:1.17192;stroke-linecap:square;stroke-miterlimit:8;paint-order:stroke markers fill"
     d="m 306.15244,316.59917 c 5.71848,-8.44009 58.03561,-25.61372 63.0946,-17.08628 6.71967,9.05625 -18.68869,49.90633 -27.03437,51.24152 -28.95094,4.70409 16.89457,-25.59533 -0.28584,-30.71551 10.87091,-9.34992 -33.5943,11.6444 -35.77439,-3.43973 z"
     id="path20-6-1"
     sodipodi:nodetypes="ccccc" />
  <rect
     style="fill:#1a1a1a;fill-opacity:1;stroke-width:1.21417;stroke-linecap:square;stroke-miterlimit:8;paint-order:stroke markers fill"
     id="rect20-5-6"
     width="96.012177"
     height="14.369521"
     x="-3.006942"
     y="453.59421"
     transform="matrix(0.81407726,-0.58075659,0.62171674,0.78324217,0,0)" />
  <path
     style="fill:#1a1a1a;fill-opacity:1;stroke-width:1.21153;stroke-linecap:square;stroke-miterlimit:8;paint-order:stroke markers fill"
     d="m 336.19821,154.31458 c 11.16256,2.30516 48.23228,42.8342 40.77844,50.05183 -7.44072,8.85183 -60.66685,-0.30613 -65.05867,-7.22605 -15.3135,-23.98156 33.69367,6.5966 33.1782,-10.19637 13.96664,6.54968 -24.47171,-25.82517 -8.89797,-32.62941 z"
     id="path20-6-1-0"
     sodipodi:nodetypes="ccccc" />
  <rect
     style="fill:#1a1a1a;fill-opacity:1;stroke-width:1.26075;stroke-linecap:square;stroke-miterlimit:8;paint-order:stroke markers fill"
     id="rect20-5-6-3"
     width="101.60936"
     height="14.639804"
     x="314.68198"
     y="-16.992918"
     transform="matrix(0.86602941,0.49999306,-0.6175924,0.78649833,0,0)" />
  <path
     style="fill:#1a1a1a;fill-opacity:1;stroke-width:1.05639;stroke-linecap:square;stroke-miterlimit:8;paint-order:stroke markers fill"
     d="m 159.03174,197.02746 c 9.50981,2.05719 41.09088,38.22662 34.74068,44.66786 -6.33904,7.89967 -51.68436,-0.2732 -55.4259,-6.44876 -13.04615,-21.40191 28.70488,5.88702 28.26574,-9.09957 11.8987,5.84515 -20.84837,-23.0472 -7.58052,-29.11953 z"
     id="path20-6-1-0-5"
     sodipodi:nodetypes="ccccc" />
  <rect
     style="fill:#1a1a1a;fill-opacity:1;stroke-width:1.09645;stroke-linecap:square;stroke-miterlimit:8;paint-order:stroke markers fill"
     id="rect20-5-6-3-4"
     width="87.611542"
     height="12.842139"
     x="204.64853"
     y="102.34743"
     transform="matrix(0.85568234,0.51750143,-0.59980125,0.80014902,0,0)" />
  <path
     style="fill:#1a1a1a;fill-opacity:1;stroke-width:1.16343;stroke-linecap:square;stroke-miterlimit:8;paint-order:stroke markers fill"
     d="m 161.33102,320.73712 c 9.86909,2.40434 42.64333,44.67723 36.05322,52.20543 -6.57854,9.23268 -53.63707,-0.31931 -57.51998,-7.53699 -13.53905,-25.01341 29.7894,6.88044 29.33367,-10.63509 12.34824,6.83151 -21.63606,-26.93634 -7.86691,-34.03335 z"
     id="path20-6-1-0-59"
     sodipodi:nodetypes="ccccc" />
  <rect
     style="fill:#1a1a1a;fill-opacity:1;stroke-width:1.2046;stroke-linecap:square;stroke-miterlimit:8;paint-order:stroke markers fill"
     id="rect20-5-6-3-8"
     width="94.131714"
     height="14.426733"
     x="266.91803"
     y="191.83549"
     transform="matrix(0.82650201,0.56293376,-0.55409307,0.83245472,0,0)" />
  <path
     style="fill:#1a1a1a;fill-opacity:1;stroke-width:1.07556;stroke-linecap:square;stroke-miterlimit:8;paint-order:stroke markers fill"
     d="m 142.61436,129.0486 c 7.54922,-4.98836 51.69895,4.14916 51.74034,14.32701 0.99712,11.44761 -33.93542,36.66721 -40.39544,33.92843 -22.43968,-9.43475 22.57723,-15.33975 12.54398,-28.15623 11.57302,-3.37552 -28.60571,-5.30477 -23.88888,-20.09921 z"
     id="path20-6-1-0-9"
     sodipodi:nodetypes="ccccc" />
  <rect
     style="fill:#1a1a1a;fill-opacity:1;stroke-width:1.11464;stroke-linecap:square;stroke-miterlimit:8;paint-order:stroke markers fill"
     id="rect20-5-6-3-2"
     width="79.657433"
     height="14.59678"
     x="89.151443"
     y="169.86211"
     transform="matrix(0.98485708,-0.17336821,0.11314959,0.99357796,0,0)" />
  <ellipse
     style="fill:#1a1a1a;fill-opacity:1;stroke-width:1.90902;stroke-linecap:square;stroke-miterlimit:8;paint-order:stroke markers fill"
     id="path19-5"
     cx="435.70026"
     cy="252.96017"
     rx="58.31971"
     ry="60.021091" />
  <ellipse
     style="fill:#e84357;fill-opacity:1;stroke-width:1.4848;stroke-linecap:square;stroke-miterlimit:8;paint-order:stroke markers fill"
     id="path19"
     cx="435.70026"
     cy="252.96017"
     rx="45.359772"
     ry="46.683075" />
  <ellipse
     style="fill:#1a1a1a;fill-opacity:1;stroke-width:1.56193;stroke-linecap:square;stroke-miterlimit:8;paint-order:stroke markers fill"
     id="path19-5-8"
     cx="247.19368"
     cy="130.85745"
     rx="47.716125"
     ry="49.10817" />
  <ellipse
     style="fill:#f5c83b;fill-opacity:1;stroke-width:1.21483;stroke-linecap:square;stroke-miterlimit:8;paint-order:stroke markers fill"
     id="path19-0"
     cx="247.19368"
     cy="130.85745"
     rx="37.112541"
     ry="38.195244" />
  <ellipse
     style="fill:#1a1a1a;fill-opacity:1;stroke-width:1.56193;stroke-linecap:square;stroke-miterlimit:8;paint-order:stroke markers fill"
     id="path19-5-4"
     cx="248.81084"
     cy="250.08868"
     rx="47.716125"
     ry="49.10817" />
  <ellipse
     style="fill:#f5c83b;fill-opacity:1;stroke-width:1.21483;stroke-linecap:square;stroke-miterlimit:8;paint-order:stroke markers fill"
     id="path19-6"
     cx="248.81084"
     cy="250.08868"
     rx="37.112541"
     ry="38.195244" />
  <ellipse
     style="fill:#1a1a1a;fill-opacity:1;stroke-width:1.56193;stroke-linecap:square;stroke-miterlimit:8;paint-order:stroke markers fill"
     id="path19-5-9"
     cx="248.92342"
     cy="374.14227"
     rx="47.716125"
     ry="49.10817" />
  <ellipse
     style="fill:#f5c83b;fill-opacity:1;stroke-width:1.21483;stroke-linecap:square;stroke-miterlimit:8;paint-order:stroke markers fill"
     id="path19-8"
     cx="248.92342"
     cy="374.14227"
     rx="37.112541"
     ry="38.195244" />
  <ellipse
     style="fill:#1a1a1a;fill-opacity:1;stroke-width:1.56193;stroke-linecap:square;stroke-miterlimit:8;paint-order:stroke markers fill"
     id="path19-5-8-6"
     cx="71.221466"
     cy="170.93634"
     rx="47.716125"
     ry="49.10817" />
  <ellipse
     style="fill:#4dd6d3;fill-opacity:1;stroke-width:1.21483;stroke-linecap:square;stroke-miterlimit:8;paint-order:stroke markers fill"
     id="path19-0-3"
     cx="71.221466"
     cy="170.93634"
     rx="37.112541"
     ry="38.195244" />
  <ellipse
     style="fill:#1a1a1a;fill-opacity:1;stroke-width:1.56193;stroke-linecap:square;stroke-miterlimit:8;paint-order:stroke markers fill"
     id="path19-5-4-1"
     cx="83.548744"
     cy="311.5238"
     rx="47.716125"
     ry="49.10817" />
  <ellipse
     style="fill:#4dd6d3;fill-opacity:1;stroke-width:1.21483;stroke-linecap:square;stroke-miterlimit:8;paint-order:stroke markers fill"
     id="path19-6-3"
     cx="83.548744"
     cy="311.5238"
     rx="37.112541"
     ry="38.195244" />
</svg>
